<svg width="16" height="19" viewBox="0 0 16 19" fill="none" xmlns="http://www.w3.org/2000/svg">
<path d="M6.39667 8.16699C6.89667 8.16699 7.30167 8.54199 7.2925 9.00033C7.2925 9.45866 6.8975 9.83366 6.39667 9.83366C5.905 9.83366 5.5 9.45866 5.5 9.00033C5.5 8.54199 5.89583 8.16699 6.39667 8.16699ZM9.60333 8.16699C10.1042 8.16699 10.5 8.54199 10.5 9.00033C10.5 9.45866 10.1042 9.83366 9.60333 9.83366C9.11167 9.83366 8.7075 9.45866 8.7075 9.00033C8.7075 8.54199 9.1025 8.16699 9.60333 8.16699ZM13.7425 0.666992C14.7117 0.666992 15.5 1.47199 15.5 2.46949V18.167L13.6575 16.5045L12.62 15.5245L11.5225 14.4828L11.9775 16.102H2.2575C1.28833 16.102 0.5 15.297 0.5 14.2995V2.46949C0.5 1.47199 1.28833 0.666992 2.2575 0.666992H13.7417H13.7425ZM10.4342 12.0945C12.3283 12.0337 13.0575 10.7645 13.0575 10.7645C13.0575 7.94699 11.8225 5.66283 11.8225 5.66283C10.5892 4.71866 9.41417 4.74449 9.41417 4.74449L9.29417 4.88449C10.7517 5.33949 11.4283 5.99616 11.4283 5.99616C10.6326 5.54782 9.75553 5.26227 8.84833 5.15616C8.27286 5.09116 7.69161 5.09676 7.1175 5.17283C7.06583 5.17283 7.0225 5.18199 6.97167 5.19033C6.67167 5.21699 5.9425 5.33033 5.02583 5.74199C4.70917 5.89033 4.52 5.99616 4.52 5.99616C4.52 5.99616 5.23167 5.30449 6.77417 4.84949L6.68833 4.74449C6.68833 4.74449 5.51417 4.71866 4.28 5.66366C4.28 5.66366 3.04583 7.94699 3.04583 10.7645C3.04583 10.7645 3.76583 12.0328 5.66 12.0945C5.66 12.0945 5.97667 11.7012 6.235 11.3687C5.14583 11.0353 4.735 10.3353 4.735 10.3353C4.735 10.3353 4.82 10.397 4.97417 10.4845C4.9825 10.4928 4.99083 10.502 5.00833 10.5103C5.03417 10.5287 5.06 10.537 5.08583 10.5545C5.3 10.677 5.51417 10.7728 5.71083 10.852C6.0625 10.992 6.4825 11.132 6.97167 11.2287C7.70443 11.3723 8.45784 11.3751 9.19167 11.237C9.6191 11.1607 10.0361 11.0346 10.4342 10.8612C10.7342 10.747 11.0683 10.5803 11.42 10.3445C11.42 10.3445 10.9917 11.062 9.86833 11.3862C10.1258 11.7187 10.435 12.0945 10.435 12.0945H10.4342Z" fill="white"/>
</svg>
