<svg width="18" height="18" viewBox="0 0 18 18" fill="none" xmlns="http://www.w3.org/2000/svg">
<path d="M8.99545 0.666992C7.34727 0.666992 5.7361 1.15573 4.36569 2.07141C2.99528 2.98709 1.92718 4.28858 1.29645 5.8113C0.66572 7.33401 0.500692 9.00957 0.822236 10.6261C1.14378 12.2426 1.93745 13.7274 3.10289 14.8929C4.26833 16.0583 5.75319 16.852 7.36969 17.1735C8.9862 17.4951 10.6618 17.3301 12.1845 16.6993C13.7072 16.0686 15.0087 15.0005 15.9244 13.6301C16.84 12.2597 17.3288 10.6485 17.3288 9.00033C17.3289 7.90595 17.1134 6.82228 16.6946 5.81119C16.2759 4.8001 15.662 3.88141 14.8882 3.10757C14.1144 2.33373 13.1957 1.7199 12.1846 1.30114C11.1735 0.882388 10.0898 0.666901 8.99545 0.666992V0.666992ZM11.645 13.2941C11.6138 13.3718 11.5664 13.442 11.5058 13.5C11.4453 13.5579 11.3731 13.6022 11.294 13.63C11.2149 13.6577 11.1308 13.6682 11.0474 13.6608C10.9639 13.6534 10.883 13.6282 10.81 13.587L8.54781 11.8292L7.09588 13.1687C7.06219 13.1936 7.02278 13.2096 6.98128 13.2152C6.93977 13.2209 6.89751 13.2161 6.85838 13.2011L7.13671 10.7107L7.14562 10.7178L7.15131 10.6686C7.15131 10.6686 11.2221 6.96237 11.388 6.80446C11.5559 6.64696 11.5005 6.61279 11.5005 6.61279C11.51 6.42068 11.1992 6.61279 11.1992 6.61279L5.80545 10.0828L3.5592 9.31783C3.5592 9.31783 3.2142 9.19408 3.1817 8.92199C3.14754 8.65199 3.57045 8.50533 3.57045 8.50533L12.5013 4.9574C12.5013 4.9574 13.2354 4.6303 13.2354 5.17199L11.645 13.2941Z" fill="white" fill-opacity="0.88"/>
</svg>
