<svg width="18" height="14" viewBox="0 0 18 14" fill="none" xmlns="http://www.w3.org/2000/svg">
<path d="M16.6736 2.34683H17.3327V0.402344H11.0992L9.02763 8.0412H8.97097L6.91826 0.402344H0.666016V2.34678H1.30632C1.45435 2.37087 1.59168 2.43899 1.70043 2.54226C1.80919 2.64553 1.88431 2.77916 1.91602 2.92574V11.1177C1.88235 11.259 1.80559 11.3864 1.69636 11.4822C1.58713 11.5779 1.45083 11.6374 1.30632 11.6523H0.666016V13.5968H5.66602V11.6523H4.41602V3.04125H4.48895L7.37027 13.5968H9.63027L12.5493 3.04125H12.6106V11.6523H11.3605V13.5968H17.3327V11.6523H16.6736C16.5324 11.634 16.4001 11.5729 16.2945 11.4774C16.1889 11.3818 16.115 11.2563 16.0827 11.1177V2.92579C16.1133 2.78187 16.1857 2.65018 16.2908 2.54719C16.3959 2.44421 16.529 2.37451 16.6736 2.34683V2.34683Z" fill="white" fill-opacity="0.88"/>
</svg>
