<svg width="33" height="33" viewBox="0 0 33 33" fill="none" xmlns="http://www.w3.org/2000/svg">
<path d="M0.5 16.0713C0.5 7.23379 7.6625 0.0712891 16.5 0.0712891C25.3375 0.0712891 32.5 7.23379 32.5 16.0713C32.5 24.9088 25.3375 32.0713 16.5 32.0713C7.6625 32.0713 0.5 24.9088 0.5 16.0713ZM23.7375 13.3088C24.4187 12.6275 24.4187 11.515 23.7375 10.8338C23.0562 10.1525 21.9438 10.1525 21.2625 10.8338L14.5 17.5963L11.7375 14.8338C11.0563 14.1525 9.94375 14.1525 9.2625 14.8338C8.58125 15.515 8.58125 16.6275 9.2625 17.3088L13.2625 21.3088C13.9437 21.99 15.0563 21.99 15.7375 21.3088L23.7375 13.3088Z" fill="#86F4FC"/>
</svg>
