<svg width="30" height="18" viewBox="0 0 30 18" fill="none" xmlns="http://www.w3.org/2000/svg">
<path d="M21.375 4.6875C21.8906 4.6875 22.3125 5.06719 22.3125 5.625V5.8125H25.125C25.6406 5.8125 26.0625 6.19219 26.0625 6.75C26.0625 7.26562 25.6406 7.6875 25.125 7.6875H25.0312L24.9562 7.89844C24.5391 9.00469 23.9016 10.0828 23.0953 10.9641C23.1375 10.9875 23.1797 10.9734 23.2219 11.0391L24.1078 11.5687C24.5531 11.8359 24.6937 12.4125 24.4266 12.8578C24.1641 13.3031 23.5875 13.4438 23.1422 13.1766L22.2562 12.6469C22.05 12.5203 21.8016 12.3891 21.6422 12.2484C21.15 12.6 20.6156 12.9047 20.0531 13.1578L19.8797 13.2328C19.4062 13.4437 18.8531 13.2281 18.6422 12.7547C18.4312 12.2812 18.6469 11.7281 19.1203 11.5172L19.2891 11.4422C19.5891 11.3063 19.8797 11.1141 20.1562 10.9828L19.5891 10.4109C19.2187 10.0453 19.2187 9.45469 19.5891 9.08906C19.9547 8.71875 20.5453 8.71875 20.9109 9.08906L21.5953 9.76875L21.6234 9.75469C22.2047 9.18281 22.6781 8.47031 23.0203 7.64531H18C17.4422 7.64531 17.0625 7.26563 17.0625 6.70781C17.0625 6.19219 17.4422 5.77031 18 5.77031H20.4375V5.58281C20.4375 5.06719 20.8172 4.64531 21.375 4.64531V4.6875ZM6.56719 9.9375L7.5 7.93125L8.39062 9.9375H6.56719ZM27 0C28.6547 0 30 1.34297 30 3V15C30 16.6547 28.6547 18 27 18H3C1.34297 18 0 16.6547 0 15V3C0 1.34297 1.34297 0 3 0H27ZM27 2.25H15V15.75H27C27.4125 15.75 27.75 15.4125 27.75 15V3C27.75 2.5875 27.4125 2.25 27 2.25ZM8.35781 5.24531C8.20781 4.90781 7.87031 4.6875 7.5 4.6875C7.12969 4.6875 6.79219 4.90781 6.64219 5.24531L3.64312 11.9953C3.43312 12.4266 3.64594 13.0219 4.11937 13.2328C4.59234 13.4437 5.14687 13.2281 5.35781 12.7547L5.775 11.7703H9.225L9.64219 12.7547C9.85312 13.2281 10.4062 13.4437 10.8797 13.2328C11.3531 13.0219 11.5687 12.4266 11.3578 11.9953L8.35781 5.24531Z" fill="white" fill-opacity="0.72"/>
</svg>
