<svg width="13" height="14" viewBox="0 0 13 14" fill="none" xmlns="http://www.w3.org/2000/svg">
<path d="M10.4594 7.39688C10.4531 6.25 10.9719 5.38437 12.0219 4.74687C11.4344 3.90625 10.5469 3.44375 9.375 3.35313C8.26562 3.26563 7.05312 4 6.60938 4C6.14062 4 5.06562 3.38438 4.22187 3.38438C2.47812 3.4125 0.625 4.775 0.625 7.54688C0.625 8.36563 0.775 9.21146 1.075 10.0844C1.475 11.2313 2.91875 14.0437 4.425 13.9969C5.2125 13.9781 5.76875 13.4375 6.79375 13.4375C7.7875 13.4375 8.30312 13.9969 9.18125 13.9969C10.7 13.975 12.0062 11.4188 12.3875 10.2688C10.35 9.30938 10.4594 7.45625 10.4594 7.39688V7.39688ZM8.69063 2.26562C9.54375 1.25312 9.46563 0.33125 9.44063 0C8.6875 0.04375 7.81562 0.5125 7.31875 1.09063C6.77187 1.70938 6.45 2.475 6.51875 3.3375C7.33438 3.4 8.07813 2.98125 8.69063 2.26562V2.26562Z" fill="white" fill-opacity="0.72"/>
</svg>
